#!OML:ASF X:\für Bonn\!DataBase\2005_08_12_Daniel\c3d\Daniel.ASF
:FULLY-SPECIFIED
:DEGREES
17
root -4.05685 16.9697 -2.15114 341.554 -74.2635 -351.415
lowerback 14.9472 -8.58076 -3.9431
upperback 6.90249 -12.2325 -2.86736
thorax -0.738735 -6.29124 0.996341
lowerneck 4.11075 8.32781 1.15898
upperneck 20.2127 10.9194 -3.14701
head 5.70019 4.85306 -0.804679
rclavicle -2.21645e-014 2.38542e-015
rhumerus -16.0585 27.6402 -62.0188
rradius 109.136
rwrist -14.3894
rhand -19.201 37.8819
rfingers 7.12502
rthumb 7.1111 8.02134
lclavicle -2.21645e-014 2.38542e-015
lhumerus 13.2038 -4.66582 79.752
lradius 111.306
lwrist 38.9373
lhand -15.2345 -11.2024
lfingers 7.12502
lthumb 10.9386 18.4926
rfemur -0.0718 2.18335 15.6235
rtibia 36.5209
rfoot -28.4342 -11.3614
rtoes -11.1821
lfemur -12.5575 -12.214 -24.0458
ltibia 42.207
lfoot -21.1481 -0.0305667
ltoes 1.50817
18
root -4.05426 16.9831 -2.08741 341.859 -74.0466 -351.948
lowerback 15.3413 -9.09139 -4.06535
upperback 6.99769 -12.9407 -2.73888
thorax -0.755956 -6.65341 1.33504
lowerneck 4.37065 8.5898 0.839217
upperneck 20.0569 11.2614 -3.2308
head 5.60494 4.99203 -0.781804
rclavicle 1.11518e-013 8.74653e-015
rhumerus -18.3346 28.7105 -62.2467
rradius 108.603
rwrist -14.223
rhand -19.6409 37.4383
rfingers 7.12502
rthumb 6.68651 7.56384
lclavicle 1.11518e-013 8.74653e-015
lhumerus 14.5891 -4.27366 79.5605
lradius 112.206
lwrist 39.0565
lhand -15.2558 -10.9694
lfingers 7.12502
lthumb 10.9181 18.7267
rfemur -1.03688 0.996379 14.9792
rtibia 38.4067
rfoot -26.7883 -10.669
rtoes -11.5179
lfemur -12.0787 -12.4086 -24.2883
ltibia 41.8527
lfoot -21.033 0.0358772
ltoes 1.62218
19
root -4.04899 17.0005 -2.02517 342.206 -73.8677 -352.547
lowerback 15.7729 -9.59204 -4.14596
upperback 7.12147 -13.6338 -2.63571
thorax -0.770101 -7.00867 1.63177
lowerneck 4.61379 8.84515 0.502903
upperneck 19.8457 11.5884 -3.28625
head 5.49163 5.12775 -0.749785
rclavicle 1.28216e-013 -3.65764e-014
rhumerus -20.6996 29.6713 -62.6477
rradius 108.065
rwrist -13.9938
rhand -20.1765 37.013
rfingers 7.12502
rthumb 6.1694 7.12286
lclavicle 1.28216e-013 -3.65764e-014
lhumerus 16.0441 -3.87339 79.3617
lradius 113.163
lwrist 39.2322
lhand -15.3297 -10.6137
lfingers 7.12502
lthumb 10.8468 19.0862
rfemur -2.25621 -0.00636652 14.4018
rtibia 40.6693
rfoot -24.8716 -10.1103
rtoes -11.0933
lfemur -11.5422 -12.5824 -24.4843
ltibia 41.4211
lfoot -20.8925 0.0842533
ltoes 1.68142
20
root -4.04066 17.0191 -1.9654 342.485 -73.7038 -353.108
lowerback 16.2605 -10.077 -4.25822
upperback 7.27515 -14.3151 -2.5411
thorax -0.769078 -7.36112 1.94358
lowerneck 4.81401 9.10432 0.173854
upperneck 19.6245 11.9201 -3.34073
head 5.38228 5.26778 -0.717885
rclavicle -5.74488e-014 9.14409e-015
rhumerus -23.0887 30.4666 -63.1547
rradius 107.502
rwrist -13.711
rhand -20.6516 36.6837
rfingers 7.12502
rthumb 5.71073 6.7807
lclavicle -5.74488e-014 9.14409e-015
lhumerus 17.5319 -3.48773 79.1752
lradius 114.161
lwrist 39.4469
lhand -15.44 -10.3335
lfingers 7.12502
lthumb 10.7403 19.3719
rfemur -3.73632 -0.861181 13.838
rtibia 43.2651
rfoot -22.5833 -9.74503
rtoes -10.44
lfemur -10.9636 -12.7282 -24.6831
ltibia 40.9596
lfoot -20.6913 0.134794
ltoes 1.75867
21
root -4.03079 17.0327 -1.90961 342.738 -73.5882 -353.675
lowerback 16.8231 -10.542 -4.42634
upperback 7.43058 -14.9834 -2.4316
thorax -0.77871 -7.70942 2.31261
lowerneck 5.00483 9.37296 -0.207025
upperneck 19.3808 12.2598 -3.38348
head 5.26336 5.41058 -0.675689
rclavicle -1.45113e-013 -6.75868e-015
rhumerus -25.4324 31.1067 -63.7483
rradius 106.787
rwrist -13.3391
rhand -21.0854 36.6262
rfingers 7.12502
rthumb 5.2919 6.71229
lclavicle -1.45113e-013 -6.75868e-015
lhumerus 19.0022 -3.01888 79.0431
lradius 115.166
lwrist 39.6614
lhand -15.446 -10.1933
lfingers 7.12502
lthumb 10.7346 19.5124
rfemur -5.43721 -1.67357 13.289
rtibia 46.1184
rfoot -19.9336 -9.47876
rtoes -10.1714
lfemur -10.3705 -12.8659 -24.8548
ltibia 40.5162
lfoot -20.5297 0.208982
ltoes 1.97769
22
root -4.01755 17.0437 -1.85584 342.968 -73.498 -354.202
lowerback 17.4121 -10.9999 -4.60739
upperback 7.58412 -15.6477 -2.34371
thorax -0.796621 -8.05608 2.67493
lowerneck 5.21107 9.64363 -0.529575
upperneck 19.1137 12.6013 -3.44578
head 5.139 5.55933 -0.651011
rclavicle -4.96962e-015 -1.47101e-014
rhumerus -27.7292 31.5233 -64.487
rradius 105.879
rwrist -12.7697
rhand -21.5763 36.8606
rfingers 7.12502
rthumb 4.81787 6.93533
lclavicle -4.96962e-015 -1.47101e-014
lhumerus 20.4493 -2.54665 78.8627
lradius 116.185
lwrist 39.9009
lhand -15.3944 -10.1862
lfingers 7.12502
lthumb 10.7844 19.5169
rfemur -7.37977 -2.36695 12.759
rtibia 49.1803
rfoot -17.0365 -9.3299
rtoes -10.2562
lfemur -9.81416 -13.0329 -25.0257
ltibia 40.0911
lfoot -20.4079 0.304322
ltoes 2.1981
23
root -4.0011 17.0535 -1.80663 343.139 -73.4564 -354.741
lowerback 18.1137 -11.4269 -4.86378
upperback 7.77617 -16.293 -2.24939
thorax -0.798406 -8.39914 3.09757
lowerneck 5.39149 9.91583 -0.871722
upperneck 18.8044 12.9437 -3.50832
head 5.00411 5.71054 -0.62452
rclavicle -2.49475e-014 3.26007e-014
rhumerus -29.7954 31.6411 -65.266
rradius 104.681
rwrist -12.0125
rhand -22.0203 37.4092
rfingers 7.12502
rthumb 4.38916 7.47467
lclavicle -2.49475e-014 3.26007e-014
lhumerus 21.9532 -2.00489 78.7112
lradius 117.111
lwrist 40.1417
lhand -15.1939 -10.3903
lfingers 7.12502
lthumb 10.9777 19.3026
rfemur -9.41695 -2.87837 12.3065
rtibia 52.399
rfoot -13.9834 -9.27518
rtoes -10.3845
lfemur -9.19555 -13.1389 -25.1711
ltibia 39.6753
lfoot -20.3021 0.405707
ltoes 2.40633
24
root -3.98132 17.0673 -1.7591 343.197 -73.498 -355.142
lowerback 18.8553 -11.82 -5.17531
upperback 7.94611 -16.9084 -2.15499
thorax -0.818136 -8.72831 3.55681
lowerneck 5.56798 10.2083 -1.22855
upperneck 18.4965 13.3099 -3.57327
head 4.86976 5.87311 -0.597324
rclavicle -1.35174e-014 7.95139e-015
rhumerus -31.7056 31.4754 -66.121
rradius 103.184
rwrist -11.1181
rhand -22.4471 38.2318
rfingers 7.12502
rthumb 3.97699 8.28922
lclavicle -1.35174e-014 7.95139e-015
lhumerus 23.4554 -1.40805 78.59
lradius 117.974
lwrist 40.4245
lhand -14.8465 -10.6744
lfingers 7.12502
lthumb 11.3128 19.0005
rfemur -11.6399 -3.23944 11.8735
rtibia 55.7491
rfoot -10.9639 -9.18677
rtoes -10.6771
lfemur -8.59577 -13.217 -25.3315
ltibia 39.2521
lfoot -20.2128 0.547568
ltoes 2.66452
25
root -3.9554 17.0799 -1.7126 343.152 -73.6279 -355.487
lowerback 19.7226 -12.1821 -5.50589
upperback 8.12192 -17.4996 -2.09421
thorax -0.887914 -9.04484 4.02051
lowerneck 5.77142 10.5068 -1.5854
upperneck 18.1256 13.6755 -3.61238
head 4.70934 6.04163 -0.567336
rclavicle 3.24019e-014 -2.50469e-014
rhumerus -33.4064 31.0775 -67.0612
rradius 101.431
rwrist -10.0768
rhand -22.9012 39.2053
rfingers 7.12502
rthumb 3.53853 9.25493
lclavicle 3.24019e-014 -2.50469e-014
lhumerus 24.9433 -0.781113 78.4422
lradius 118.761
lwrist 40.7445
lhand -14.3804 -11.0175
lfingers 7.12502
lthumb 11.7623 18.6322
rfemur -14.0008 -3.5276 11.4455
rtibia 59.2161
rfoot -8.1216 -8.89585
rtoes -10.8363
lfemur -7.95919 -13.2213 -25.4821
ltibia 38.8298
lfoot -20.1312 0.693873
ltoes 2.82457
26
root -3.92806 17.0896 -1.66714 343.048 -73.8273 -355.778
lowerback 20.6283 -12.5007 -5.87543
upperback 8.28718 -18.0488 -2.02296
thorax -0.963079 -9.342 4.52056
lowerneck 6.18914 10.8055 -1.97538
upperneck 17.2536 13.9899 -3.59216
head 4.88613 6.21033 -0.598729
rclavicle 6.38099e-014 -3.18055e-014
rhumerus -35.0059 30.43 -67.9955
rradius 99.5841
rwrist -8.91345
rhand -23.3731 40.1845
rfingers 7.12502
rthumb 3.08274 10.227
lclavicle 6.38099e-014 -3.18055e-014
lhumerus 26.3575 -0.155753 78.3618
lradius 119.523
lwrist 41.108
lhand -13.8038 -11.3972
lfingers 7.12502
lthumb 12.3183 18.22
rfemur -16.4798 -3.74899 11.0357
rtibia 62.7276
rfoot -5.64061 -8.31593
rtoes -11.2114
lfemur -7.32379 -13.1834 -25.6354
ltibia 38.4142
lfoot -20.0323 0.874504
ltoes 3.10631
27
root -3.89856 17.0969 -1.62327 342.928 -74.058 -356.073
lowerback 21.5898 -12.799 -6.25072
upperback 8.46357 -18.5835 -1.98521
thorax -1.05021 -9.63217 5.00451
lowerneck 6.42775 11.0617 -2.1009
upperneck 16.9002 14.3128 -3.77256
head 4.72173 6.36834 -0.65415
rclavicle -1.98785e-016 -4.41302e-014
rhumerus -36.6484 29.5417 -69.0297
rradius 97.8571
rwrist -7.72294
rhand -23.8035 40.9729
rfingers 7.12502
rthumb 2.66713 11.0099
lclavicle -1.98785e-016 -4.41302e-014
lhumerus 27.731 0.45156 78.3065
lradius 120.287
lwrist 41.4929
lhand -13.187 -11.6415
lfingers 7.12502
lthumb 12.9129 17.9389
rfemur -19.0241 -3.91285 10.6739
rtibia 66.2056
rfoot -3.53119 -7.49071
rtoes -11.9695
lfemur -6.68542 -13.1283 -25.7793
ltibia 38.0156
lfoot -19.9175 1.07115
ltoes 3.41542
28
root -3.8693 17.1046 -1.58135 342.804 -74.3099 -356.38
lowerback 22.6073 -13.0905 -6.70772
upperback 8.6436 -19.137 -1.92735
thorax -1.10966 -9.93766 5.56261
lowerneck 6.61604 11.3368 -2.21934
upperneck 16.5658 14.6641 -3.9644
head 4.57797 6.53977 -0.710994
rclavicle 9.93923e-014 -9.38264e-014
rhumerus -38.168 28.6302 -69.9545
rradius 96.2408
rwrist -6.58715
rhand -24.1582 41.5549
rfingers 7.12502
rthumb 2.3246 11.5879
lclavicle 9.93923e-014 -9.38264e-014
lhumerus 29.0541 1.13442 78.3115
lradius 121.114
lwrist 41.8303
lhand -12.589 -11.7782
lfingers 7.12502
lthumb 13.4893 17.765
rfemur -21.5902 -4.01826 10.3781
rtibia 69.5828
rfoot -1.87352 -6.3678
rtoes -12.6674
lfemur -6.03364 -13.0327 -25.903
ltibia 37.6232
lfoot -19.8306 1.23847
ltoes 3.69618
29
root -3.84282 17.1158 -1.54183 342.841 -74.5212 -356.85
lowerback 23.6207 -13.3864 -7.16992
upperback 8.83224 -19.7059 -1.87043
thorax -1.13609 -10.2547 6.12409
lowerneck 6.85854 11.5918 -2.25202
upperneck 16.1925 14.9907 -4.21143
head 4.42402 6.70535 -0.80396
rclavicle -1.84273e-013 1.59028e-014
rhumerus -39.6826 27.6244 -70.8568
rradius 94.7354
rwrist -5.40285
rhand -24.4854 41.8585
rfingers 7.12502
rthumb 2.00859 11.8882
lclavicle -1.84273e-013 1.59028e-014
lhumerus 30.2705 1.80675 78.3456
lradius 122.062
lwrist 42.2406
lhand -12.0616 -11.8196
lfingers 7.12502
lthumb 13.9976 17.6891
rfemur -24.1742 -4.16496 10.1712
rtibia 72.8624
rfoot -0.539179 -4.97008
rtoes -12.8179
lfemur -5.37899 -12.9996 -25.9881
ltibia 37.245
lfoot -19.7287 1.41458
ltoes 4.00924
